<svg width="48" height="48" viewBox="0 0 48 48" fill="none" xmlns="http://www.w3.org/2000/svg">
<path fill-rule="evenodd" clip-rule="evenodd" d="M42.6887 38.2052H34.6109V34.701H42.6887C41.9527 31.6783 39.3573 29.4448 36.2685 29.4448C33.8149 29.4448 31.6726 30.8541 30.5264 32.9488H17.474C16.3277 30.8541 14.1855 29.4448 11.7319 29.4448C8.64304 29.4448 6.04763 31.6783 5.31168 34.701H13.3893V38.2052H5.3116C6.04744 41.2281 8.64292 43.4617 11.7319 43.4617C14.1848 43.4617 16.3266 42.0532 17.473 39.9594H30.5273C31.6738 42.0532 33.8155 43.4617 36.2685 43.4617C39.3574 43.4617 41.9529 41.2281 42.6887 38.2052Z" fill="#FFAF5F"/>
<path fill-rule="evenodd" clip-rule="evenodd" d="M15.3653 9.46861C15.0642 8.07417 14.793 6.64883 16.0758 6.23838C21.1324 4.62034 24.7639 4.55587 29.9721 6.23404C31.1629 6.61775 31.8708 7.8798 31.7172 9.17471C36.8036 12.0295 40.4355 17.1114 41.1109 23.4958H42.3607C43.266 23.4958 44 24.2802 44 25.2479C44 26.2156 43.266 27 42.3607 27H42.1568C40.7841 27 39.4329 27.7062 38.2243 28.4018L33.87 30.9077C32.3412 31.7875 30.6321 32.248 28.8958 32.248H18.6397C16.7821 32.248 14.9578 31.7209 13.3532 30.7205L9.79969 28.5051C8.57811 27.7434 7.18923 27 5.77501 27H5.63934C4.73396 27 4 26.2156 4 25.2479C4 24.2802 4.73396 23.4958 5.63934 23.4958H5.90037C6.5362 17.4853 9.79244 12.668 14.4157 9.70234L15.3653 9.46861Z" fill="#FF6740" stroke="#C22020" stroke-width="2"/>
<path d="M14.6329 8.31002C14.2909 7.20093 14.9624 6.0296 16.1001 5.7999C21.2734 4.75539 24.942 4.71279 30.2704 5.79633C31.4047 6.02699 32.0714 7.19579 31.7303 8.30188L28.8612 17.6062C28.6026 18.4448 27.8276 19.0169 26.95 19.0169H19.4106C18.5331 19.0169 17.758 18.4448 17.4994 17.6062L14.6329 8.31002Z" fill="#FFAF5F" stroke="#C22020" stroke-width="2"/>
<path d="M5.5 24H40.5" stroke="#C22020"/>
<path d="M11.8689 11.9238L15.5 24" stroke="#C22020"/>
<path d="M35.4754 11.9238L31 24" stroke="#C22020"/>
</svg>
